<mxfile host="app.diagrams.net" agent="Mozilla/5.0 (Macintosh; Intel Mac OS X 10_15_7) AppleWebKit/537.36 (KHTML, like Gecko) Chrome/141.0.0.0 Safari/537.36" version="28.2.7">
  <diagram name="Architecture" id="architecture">
    <mxGraphModel dx="1455" dy="778" grid="1" gridSize="10" guides="1" tooltips="1" connect="1" arrows="1" fold="1" page="1" pageScale="1" pageWidth="1400" pageHeight="900" math="0" shadow="0">
      <root>
        <mxCell id="0" />
        <mxCell id="1" parent="0" />
        <mxCell id="title" value="MeetMate | Chrome Extension System Architecture" style="text;html=1;strokeColor=none;fillColor=none;align=center;verticalAlign=middle;whiteSpace=wrap;fontSize=24;fontStyle=1;fontColor=#1A1A1A;" parent="1" vertex="1">
          <mxGeometry x="400" y="20" width="600" height="40" as="geometry" />
        </mxCell>
        <mxCell id="client-layer" value="CLIENT LAYER" style="text;html=1;strokeColor=none;fillColor=none;align=left;verticalAlign=middle;whiteSpace=wrap;fontSize=11;fontStyle=1;fontColor=#666666;" parent="1" vertex="1">
          <mxGeometry x="120" y="90" width="120" height="30" as="geometry" />
        </mxCell>
        <mxCell id="chrome-ext" value="" style="rounded=1;whiteSpace=wrap;html=1;fillColor=#dae8fc;strokeColor=#6c8ebf;fontSize=14;fontStyle=0;shadow=1;glass=0;strokeWidth=2;" parent="1" vertex="1">
          <mxGeometry x="520" y="80" width="360" height="140" as="geometry" />
        </mxCell>
        <mxCell id="chrome-title" value="Chrome Extension" style="text;html=1;strokeColor=none;fillColor=none;align=center;verticalAlign=middle;whiteSpace=wrap;fontSize=16;fontStyle=1;fontColor=#1A1A1A;" parent="1" vertex="1">
          <mxGeometry x="520" y="95" width="360" height="30" as="geometry" />
        </mxCell>
        <mxCell id="chrome-subtitle" value="Frontend Application" style="text;html=1;strokeColor=none;fillColor=none;align=center;verticalAlign=middle;whiteSpace=wrap;fontSize=12;fontColor=#666666;fontStyle=2;" parent="1" vertex="1">
          <mxGeometry x="520" y="120" width="360" height="25" as="geometry" />
        </mxCell>
        <mxCell id="chrome-features" value="âœ“ Meeting Recording&#xa;âœ“ Real-time Audio Capture&#xa;âœ“ User Interface" style="text;html=1;strokeColor=none;fillColor=none;align=left;verticalAlign=middle;whiteSpace=wrap;fontSize=11;fontColor=#333333;spacingLeft=20;" parent="1" vertex="1">
          <mxGeometry x="540" y="150" width="320" height="60" as="geometry" />
        </mxCell>
        <mxCell id="https-conn" value="" style="endArrow=classic;startArrow=classic;html=1;strokeWidth=3;strokeColor=#0066CC;rounded=1;" parent="1" source="chrome-ext" target="cloudflare-main" edge="1">
          <mxGeometry width="50" height="50" relative="1" as="geometry">
            <mxPoint x="540" y="300" as="sourcePoint" />
            <mxPoint x="590" y="250" as="targetPoint" />
          </mxGeometry>
        </mxCell>
        <mxCell id="https-label" value="HTTPS / REST API" style="edgeLabel;html=1;align=center;verticalAlign=middle;resizable=0;points=[];fontSize=11;fontStyle=1;fontColor=#0066CC;backgroundColor=#FFFFFF;spacing=5;" parent="https-conn" vertex="1" connectable="0">
          <mxGeometry x="-0.1" y="2" relative="1" as="geometry">
            <mxPoint x="5" y="-2" as="offset" />
          </mxGeometry>
        </mxCell>
        <mxCell id="backend-layer" value="BACKEND LAYER" style="text;html=1;strokeColor=none;fillColor=none;align=left;verticalAlign=middle;whiteSpace=wrap;fontSize=11;fontStyle=1;fontColor=#666666;" parent="1" vertex="1">
          <mxGeometry x="120" y="280" width="140" height="30" as="geometry" />
        </mxCell>
        <mxCell id="cloudflare-main" value="" style="rounded=1;whiteSpace=wrap;html=1;fillColor=#FFF9E6;strokeColor=#d6b656;strokeWidth=3;shadow=1;glass=0;arcSize=8;" parent="1" vertex="1">
          <mxGeometry x="280" y="270" width="840" height="420" as="geometry" />
        </mxCell>
        <mxCell id="cf-title" value="âš¡ Cloudflare Workers" style="text;html=1;strokeColor=none;fillColor=none;align=left;verticalAlign=middle;whiteSpace=wrap;fontSize=18;fontStyle=1;fontColor=#1A1A1A;spacingLeft=15;" parent="1" vertex="1">
          <mxGeometry x="295" y="280" width="300" height="35" as="geometry" />
        </mxCell>
        <mxCell id="cf-subtitle" value="Serverless Edge Computing Platform" style="text;html=1;strokeColor=none;fillColor=none;align=left;verticalAlign=middle;whiteSpace=wrap;fontSize=11;fontColor=#666666;fontStyle=2;spacingLeft=15;" parent="1" vertex="1">
          <mxGeometry x="295" y="310" width="300" height="25" as="geometry" />
        </mxCell>
        <mxCell id="api-box" value="" style="rounded=1;whiteSpace=wrap;html=1;fillColor=#e1d5e7;strokeColor=#9673a6;strokeWidth=2;shadow=1;" parent="1" vertex="1">
          <mxGeometry x="320" y="360" width="360" height="150" as="geometry" />
        </mxCell>
        <mxCell id="api-title" value="ðŸ”Œ API Routes" style="text;html=1;strokeColor=none;fillColor=none;align=left;verticalAlign=middle;whiteSpace=wrap;fontSize=14;fontStyle=1;fontColor=#1A1A1A;spacingLeft=10;" parent="1" vertex="1">
          <mxGeometry x="330" y="370" width="340" height="30" as="geometry" />
        </mxCell>
        <mxCell id="api-desc" value="RESTful API Endpoints" style="text;html=1;strokeColor=none;fillColor=none;align=left;verticalAlign=middle;whiteSpace=wrap;fontSize=10;fontColor=#666666;fontStyle=2;spacingLeft=10;" parent="1" vertex="1">
          <mxGeometry x="330" y="395" width="340" height="20" as="geometry" />
        </mxCell>
        <mxCell id="api-items" value="â€¢ Authentication (Google OAuth 2.0)&#xa;â€¢ Recording Management (CRUD Operations)&#xa;â€¢ Meeting History &amp; Analytics&#xa;â€¢ User Profile Management" style="text;html=1;strokeColor=none;fillColor=none;align=left;verticalAlign=top;whiteSpace=wrap;fontSize=11;fontColor=#333333;spacingLeft=20;spacingTop=5;" parent="1" vertex="1">
          <mxGeometry x="330" y="420" width="340" height="80" as="geometry" />
        </mxCell>
        <mxCell id="ai-box" value="" style="rounded=1;whiteSpace=wrap;html=1;fillColor=#d5e8d4;strokeColor=#82b366;strokeWidth=2;shadow=1;" parent="1" vertex="1">
          <mxGeometry x="720" y="360" width="360" height="150" as="geometry" />
        </mxCell>
        <mxCell id="ai-title" value="ðŸ¤– Workers AI" style="text;html=1;strokeColor=none;fillColor=none;align=left;verticalAlign=middle;whiteSpace=wrap;fontSize=14;fontStyle=1;fontColor=#1A1A1A;spacingLeft=10;" parent="1" vertex="1">
          <mxGeometry x="730" y="370" width="340" height="30" as="geometry" />
        </mxCell>
        <mxCell id="ai-desc" value="AI/ML Processing Pipeline" style="text;html=1;strokeColor=none;fillColor=none;align=left;verticalAlign=middle;whiteSpace=wrap;fontSize=10;fontColor=#666666;fontStyle=2;spacingLeft=10;" parent="1" vertex="1">
          <mxGeometry x="730" y="395" width="340" height="20" as="geometry" />
        </mxCell>
        <mxCell id="ai-items" value="â€¢ Whisper Model - Audio Transcription&#xa;  (Speech-to-Text, Multi-language Support)&#xa;â€¢ Llama 3.3 70B - Text Generation&#xa;  (Summarization, Key Points Extraction)" style="text;html=1;strokeColor=none;fillColor=none;align=left;verticalAlign=top;whiteSpace=wrap;fontSize=11;fontColor=#333333;spacingLeft=20;spacingTop=5;" parent="1" vertex="1">
          <mxGeometry x="730" y="420" width="340" height="80" as="geometry" />
        </mxCell>
        <mxCell id="api-to-ai" value="" style="endArrow=classic;startArrow=classic;html=1;strokeWidth=2.5;strokeColor=#666666;rounded=1;dashed=1;dashPattern=5 5;" parent="1" edge="1">
          <mxGeometry width="50" height="50" relative="1" as="geometry">
            <mxPoint x="680" y="420.5" as="sourcePoint" />
            <mxPoint x="720" y="420.5" as="targetPoint" />
            <Array as="points">
              <mxPoint x="700" y="420" />
            </Array>
          </mxGeometry>
        </mxCell>
        <mxCell id="process-label" value="Data Processing" style="edgeLabel;html=1;align=center;verticalAlign=middle;resizable=0;points=[];fontSize=10;fontStyle=1;fontColor=#666666;backgroundColor=#FFFFFF;" parent="api-to-ai" vertex="1" connectable="0">
          <mxGeometry x="-0.05" y="1" relative="1" as="geometry">
            <mxPoint x="1" y="-19" as="offset" />
          </mxGeometry>
        </mxCell>
        <mxCell id="orchestration" value="ðŸ”„ Request Orchestration &amp; Routing Layer" style="rounded=1;whiteSpace=wrap;html=1;fillColor=#FFE6CC;strokeColor=#d79b00;strokeWidth=2;fontSize=12;fontStyle=1;shadow=1;" parent="1" vertex="1">
          <mxGeometry x="320" y="550" width="760" height="50" as="geometry" />
        </mxCell>
        <mxCell id="data-layer" value="DATA LAYER" style="text;html=1;strokeColor=none;fillColor=none;align=left;verticalAlign=middle;whiteSpace=wrap;fontSize=11;fontStyle=1;fontColor=#666666;" parent="1" vertex="1">
          <mxGeometry x="120" y="730" width="120" height="30" as="geometry" />
        </mxCell>
        <mxCell id="d1-container" value="" style="rounded=1;whiteSpace=wrap;html=1;fillColor=#f8cecc;strokeColor=#b85450;strokeWidth=2;shadow=1;" parent="1" vertex="1">
          <mxGeometry x="360" y="720" width="280" height="140" as="geometry" />
        </mxCell>
        <mxCell id="d1-icon" value="" style="shape=cylinder3;whiteSpace=wrap;html=1;boundedLbl=1;backgroundOutline=1;size=15;fillColor=#b85450;strokeColor=#b85450;fontSize=13;fontStyle=1;fillOpacity=20;" parent="1" vertex="1">
          <mxGeometry x="385" y="750" width="70" height="80" as="geometry" />
        </mxCell>
        <mxCell id="d1-title" value="D1 Database" style="text;html=1;strokeColor=none;fillColor=none;align=left;verticalAlign=middle;whiteSpace=wrap;fontSize=14;fontStyle=1;fontColor=#1A1A1A;spacingLeft=5;" parent="1" vertex="1">
          <mxGeometry x="470" y="740" width="160" height="30" as="geometry" />
        </mxCell>
        <mxCell id="d1-tech" value="SQLite" style="text;html=1;strokeColor=none;fillColor=none;align=left;verticalAlign=middle;whiteSpace=wrap;fontSize=10;fontColor=#666666;fontStyle=2;spacingLeft=5;" parent="1" vertex="1">
          <mxGeometry x="470" y="765" width="160" height="20" as="geometry" />
        </mxCell>
        <mxCell id="d1-features" value="â€¢ User accounts&#xa;â€¢ Meeting metadata&#xa;â€¢ Transcriptions&#xa;â€¢ Analytics data" style="text;html=1;strokeColor=none;fillColor=none;align=left;verticalAlign=top;whiteSpace=wrap;fontSize=10;fontColor=#333333;spacingLeft=5;" parent="1" vertex="1">
          <mxGeometry x="470" y="785" width="160" height="65" as="geometry" />
        </mxCell>
        <mxCell id="r2-container" value="" style="rounded=1;whiteSpace=wrap;html=1;fillColor=#f8cecc;strokeColor=#b85450;strokeWidth=2;shadow=1;" parent="1" vertex="1">
          <mxGeometry x="760" y="720" width="280" height="140" as="geometry" />
        </mxCell>
        <mxCell id="r2-icon" value="" style="shape=cylinder3;whiteSpace=wrap;html=1;boundedLbl=1;backgroundOutline=1;size=15;fillColor=#b85450;strokeColor=#b85450;fontSize=13;fontStyle=1;fillOpacity=20;" parent="1" vertex="1">
          <mxGeometry x="785" y="750" width="70" height="80" as="geometry" />
        </mxCell>
        <mxCell id="r2-title" value="R2 Bucket" style="text;html=1;strokeColor=none;fillColor=none;align=left;verticalAlign=middle;whiteSpace=wrap;fontSize=14;fontStyle=1;fontColor=#1A1A1A;spacingLeft=5;" parent="1" vertex="1">
          <mxGeometry x="870" y="740" width="160" height="30" as="geometry" />
        </mxCell>
        <mxCell id="r2-tech" value="Object Storage (S3-Compatible)" style="text;html=1;strokeColor=none;fillColor=none;align=left;verticalAlign=middle;whiteSpace=wrap;fontSize=10;fontColor=#666666;fontStyle=2;spacingLeft=5;" parent="1" vertex="1">
          <mxGeometry x="870" y="765" width="160" height="20" as="geometry" />
        </mxCell>
        <mxCell id="r2-features" value="â€¢ Audio recordings&#xa;â€¢ Processed files&#xa;â€¢ Media assets&#xa;â€¢ Backup storage" style="text;html=1;strokeColor=none;fillColor=none;align=left;verticalAlign=top;whiteSpace=wrap;fontSize=10;fontColor=#333333;spacingLeft=5;" parent="1" vertex="1">
          <mxGeometry x="870" y="785" width="160" height="65" as="geometry" />
        </mxCell>
        <mxCell id="to-d1" value="" style="endArrow=classic;startArrow=classic;html=1;strokeWidth=2.5;exitX=0.3;exitY=1;exitDx=0;exitDy=0;entryX=0.5;entryY=0;entryDx=0;entryDy=0;strokeColor=#b85450;rounded=1;exitPerimeter=0;" parent="1" source="orchestration" target="d1-container" edge="1">
          <mxGeometry width="50" height="50" relative="1" as="geometry">
            <mxPoint x="440" y="670" as="sourcePoint" />
            <mxPoint x="490" y="620" as="targetPoint" />
          </mxGeometry>
        </mxCell>
        <mxCell id="d1-label" value="Structured Data" style="edgeLabel;html=1;align=center;verticalAlign=middle;resizable=0;points=[];fontSize=10;fontStyle=1;fontColor=#b85450;backgroundColor=#FFFFFF;" parent="to-d1" vertex="1" connectable="0">
          <mxGeometry x="-0.15" y="1" relative="1" as="geometry">
            <mxPoint x="-10" y="-9" as="offset" />
          </mxGeometry>
        </mxCell>
        <mxCell id="to-r2" value="" style="endArrow=classic;startArrow=classic;html=1;strokeWidth=2.5;exitX=0.7;exitY=1;exitDx=0;exitDy=0;entryX=0.5;entryY=0;entryDx=0;entryDy=0;strokeColor=#b85450;rounded=1;exitPerimeter=0;" parent="1" source="orchestration" target="r2-container" edge="1">
          <mxGeometry width="50" height="50" relative="1" as="geometry">
            <mxPoint x="640" y="670" as="sourcePoint" />
            <mxPoint x="690" y="620" as="targetPoint" />
          </mxGeometry>
        </mxCell>
        <mxCell id="r2-label" value="Binary Data" style="edgeLabel;html=1;align=center;verticalAlign=middle;resizable=0;points=[];fontSize=10;fontStyle=1;fontColor=#b85450;backgroundColor=#FFFFFF;" parent="to-r2" vertex="1" connectable="0">
          <mxGeometry x="-0.2" relative="1" as="geometry">
            <mxPoint x="10" y="-9" as="offset" />
          </mxGeometry>
        </mxCell>
        <mxCell id="legend-box" value="" style="rounded=1;whiteSpace=wrap;html=1;fillColor=#F5F5F5;strokeColor=#999999;strokeWidth=1;dashed=1;" parent="1" vertex="1">
          <mxGeometry x="1180" y="80" width="180" height="180" as="geometry" />
        </mxCell>
        <mxCell id="legend-title" value="Legend" style="text;html=1;strokeColor=none;fillColor=none;align=left;verticalAlign=middle;whiteSpace=wrap;fontSize=12;fontStyle=1;fontColor=#1A1A1A;spacingLeft=10;" parent="1" vertex="1">
          <mxGeometry x="1185" y="90" width="170" height="25" as="geometry" />
        </mxCell>
        <mxCell id="legend-1" value="â†’ Bidirectional Data Flow" style="text;html=1;strokeColor=none;fillColor=none;align=left;verticalAlign=middle;whiteSpace=wrap;fontSize=9;fontColor=#333333;spacingLeft=10;" parent="1" vertex="1">
          <mxGeometry x="1185" y="120" width="170" height="20" as="geometry" />
        </mxCell>
        <mxCell id="legend-2" value="- - â†’ Processing Pipeline" style="text;html=1;strokeColor=none;fillColor=none;align=left;verticalAlign=middle;whiteSpace=wrap;fontSize=9;fontColor=#333333;spacingLeft=10;" parent="1" vertex="1">
          <mxGeometry x="1185" y="140" width="170" height="20" as="geometry" />
        </mxCell>
        <mxCell id="legend-3" value="ðŸ”· Frontend Layer" style="text;html=1;strokeColor=none;fillColor=none;align=left;verticalAlign=middle;whiteSpace=wrap;fontSize=9;fontColor=#333333;spacingLeft=10;" parent="1" vertex="1">
          <mxGeometry x="1185" y="160" width="170" height="20" as="geometry" />
        </mxCell>
        <mxCell id="legend-4" value="ðŸŸ¨ Backend Processing" style="text;html=1;strokeColor=none;fillColor=none;align=left;verticalAlign=middle;whiteSpace=wrap;fontSize=9;fontColor=#333333;spacingLeft=10;" parent="1" vertex="1">
          <mxGeometry x="1185" y="180" width="170" height="20" as="geometry" />
        </mxCell>
        <mxCell id="legend-5" value="ðŸ”´ Data Storage" style="text;html=1;strokeColor=none;fillColor=none;align=left;verticalAlign=middle;whiteSpace=wrap;fontSize=9;fontColor=#333333;spacingLeft=10;" parent="1" vertex="1">
          <mxGeometry x="1185" y="200" width="170" height="20" as="geometry" />
        </mxCell>
        <mxCell id="legend-6" value="ðŸŸ© AI/ML Services" style="text;html=1;strokeColor=none;fillColor=none;align=left;verticalAlign=middle;whiteSpace=wrap;fontSize=9;fontColor=#333333;spacingLeft=10;" parent="1" vertex="1">
          <mxGeometry x="1185" y="220" width="170" height="20" as="geometry" />
        </mxCell>
      </root>
    </mxGraphModel>
  </diagram>
</mxfile>
